<?xml version="1.0" encoding="UTF-8" standalone="no"?>
<svg
   xmlns:dc="http://purl.org/dc/elements/1.1/"
   xmlns:cc="http://creativecommons.org/ns#"
   xmlns:rdf="http://www.w3.org/1999/02/22-rdf-syntax-ns#"
   xmlns:svg="http://www.w3.org/2000/svg"
   xmlns="http://www.w3.org/2000/svg"
   xmlns:sodipodi="http://sodipodi.sourceforge.net/DTD/sodipodi-0.dtd"
   xmlns:inkscape="http://www.inkscape.org/namespaces/inkscape"
   id="Capa_1"
   enable-background="new 0 0 512 512"
   height="512"
   viewBox="0 0 512 512"
   width="512"
   version="1.1"
   sodipodi:docname="403-error.svg"
   inkscape:version="1.0.2 (e86c870879, 2021-01-15, custom)">
  <metadata
     id="metadata102">
    <rdf:RDF>
      <cc:Work
         rdf:about="">
        <dc:format>image/svg+xml</dc:format>
        <dc:type
           rdf:resource="http://purl.org/dc/dcmitype/StillImage" />
        <dc:title></dc:title>
      </cc:Work>
    </rdf:RDF>
  </metadata>
  <defs
     id="defs100" />
  <sodipodi:namedview
     pagecolor="#ffffff"
     bordercolor="#666666"
     borderopacity="1"
     objecttolerance="10"
     gridtolerance="10"
     guidetolerance="10"
     inkscape:pageopacity="0"
     inkscape:pageshadow="2"
     inkscape:window-width="2560"
     inkscape:window-height="1361"
     id="namedview98"
     showgrid="false"
     inkscape:zoom="1.7406051"
     inkscape:cx="260.62865"
     inkscape:cy="106.49603"
     inkscape:window-x="-9"
     inkscape:window-y="-9"
     inkscape:window-maximized="1"
     inkscape:current-layer="g95"
     inkscape:document-rotation="0"
     showguides="true"
     inkscape:guide-bbox="true">
    <sodipodi:guide
       position="367.158,381.15005"
       orientation="1,0"
       id="guide857" />
    <sodipodi:guide
       position="322.72226,363.94912"
       orientation="0,-1"
       id="guide859" />
    <sodipodi:guide
       position="357.94321,327.08998"
       orientation="0,-1"
       id="guide861" />
    <sodipodi:guide
       position="374.32505,298.8313"
       orientation="0,-1"
       id="guide863" />
  </sodipodi:namedview>
  <g
     id="g95">
    <path
       d="m494.942 41.419c-10.84-13.335-26.002-22.71-42.694-26.399-4.044-.894-8.047 1.661-8.941 5.705s1.66 8.048 5.705 8.941c27.806 6.145 47.988 31.306 47.988 59.828v232.07c0 33.795-27.49 61.29-61.28 61.29h-359.44c-33.79 0-61.28-27.495-61.28-61.29v-232.07c0-33.79 27.49-61.28 61.28-61.28h344.44c4.143 0 7.5-3.358 7.5-7.5s-3.357-7.5-7.5-7.5h-344.44c-42.061 0-76.28 34.219-76.28 76.28v232.07c0 42.066 34.219 76.29 76.28 76.29h89.138v30.775h-14.131c-19.342 0-35.079 15.736-35.079 35.079s15.736 35.079 35.079 35.079h209.428c19.342 0 35.078-15.736 35.078-35.079s-15.736-35.079-35.078-35.079h-14.131v-30.775h89.137c42.062 0 76.28-34.224 76.28-76.29v-232.07c-.001-17.469-6.059-34.543-17.059-48.075zm-114.15 422.289c0 11.071-9.007 20.079-20.078 20.079h-209.428c-11.071 0-20.079-9.007-20.079-20.079s9.007-20.079 20.079-20.079h209.428c11.071 0 20.078 9.007 20.078 20.079zm-49.209-35.079h-151.166v-30.775h151.166z"
       id="path85"
       style="fill:#b3a88e;fill-opacity:1" />
    <path
       d="m153.64 359.614h282.07c20.98 0 38.05-17.069 38.05-38.05v-232.07c0-20.975-17.069-38.04-38.05-38.04h-359.42c-20.981 0-38.05 17.065-38.05 38.04v232.07c0 20.981 17.069 38.05 38.05 38.05h47.49c4.142 0 7.5-3.358 7.5-7.5s-3.358-7.5-7.5-7.5h-47.49c-12.709 0-23.05-10.34-23.05-23.05v-232.07c0-12.704 10.34-23.04 23.05-23.04h359.42c12.71 0 23.05 10.336 23.05 23.04v232.07c0 12.709-10.34 23.05-23.05 23.05h-282.07c-4.142 0-7.5 3.358-7.5 7.5s3.358 7.5 7.5 7.5z"
       id="path87"
       style="fill:#b3a88e;fill-opacity:1" />
    <path
       d="m178.481 150.142c-.638-7.652-5.006-13.821-11.127-15.717-2.86-.887-10.295-1.985-17.548 6.914-7.676 9.417-48.824 83.873-53.49 92.331-1.282 2.323-1.241 5.151.108 7.436s3.805 3.687 6.458 3.687h60.538c-.08 11.42-.167 22.583-.254 32.619-.036 4.142 3.293 7.528 7.435 7.564h.066c4.111 0 7.463-3.315 7.498-7.436.033-3.761.141-16.584.255-32.748h9.958c4.142 0 7.5-3.358 7.5-7.5s-3.358-7.5-7.5-7.5h-9.857c.216-34.216.374-74.684-.04-79.65zm-14.96 79.652h-47.913c17.819-32.081 41.213-73.319 45.825-78.978.626-.768 1.159-1.27 1.554-1.582.232.487.468 1.218.546 2.154.334 4.003.223 40.544-.012 78.406z"
       id="path89"
       style="fill:#b3a88e;fill-opacity:1" />
    <path
       d="m305.426 240.885v-62.963c0-25.845-21.026-46.871-46.871-46.871s-46.871 21.026-46.871 46.871v62.963c0 25.845 21.026 46.871 46.871 46.871s46.871-21.027 46.871-46.871zm-78.742 0v-62.963c0-17.574 14.297-31.871 31.871-31.871s31.871 14.297 31.871 31.871v62.963c0 17.574-14.297 31.871-31.871 31.871-17.574-.001-31.871-14.298-31.871-31.871z"
       id="path93"
       style="fill:#b3a88e;fill-opacity:1" />
    <path
       style="fill:#b3a88e;fill-opacity:1;stroke:none;stroke-width:1.19322px;stroke-linecap:butt;stroke-linejoin:miter;stroke-opacity:1"
       d="m 332.81591,247.71509 c 0,0 0.65149,31.54235 34.34209,31.54235 33.6906,0 27.83917,-20.63466 27.83917,-39.49506 0,-18.8604 -27.83917,-26.59368 -27.83917,-26.59368 0,0 28.85688,-25.74855 28.85688,-45.06051 0,-19.31195 -13.31452,-29.03899 -28.37992,-29.03899 -15.0654,0 -35.29602,29.03901 -35.29602,29.03901 l -6.87733,-8.25029 c 0,0 15.19881,-32.73219 41.69639,-32.73219 26.49758,0 38.87432,22.34776 38.87432,40.98246 0,18.6347 -21.80998,45.06051 -21.80998,45.06051 0,0 19.10625,10.77807 19.10625,26.59984 0,15.82178 7.84329,45.72046 -36.17059,45.72046 -44.01389,0 -41.69639,-37.77391 -41.69639,-37.77391 v 0 0"
       id="path855"
       sodipodi:nodetypes="czcczzcczzczzccc" />
  </g>
</svg>
