<?xml version="1.0" encoding="UTF-8" standalone="no"?>
<svg
   xmlns:dc="http://purl.org/dc/elements/1.1/"
   xmlns:cc="http://creativecommons.org/ns#"
   xmlns:rdf="http://www.w3.org/1999/02/22-rdf-syntax-ns#"
   xmlns:svg="http://www.w3.org/2000/svg"
   xmlns="http://www.w3.org/2000/svg"
   xmlns:sodipodi="http://sodipodi.sourceforge.net/DTD/sodipodi-0.dtd"
   xmlns:inkscape="http://www.inkscape.org/namespaces/inkscape"
   id="Capa_1"
   enable-background="new 0 0 512 512"
   height="512"
   viewBox="0 0 512 512"
   width="512"
   version="1.1"
   sodipodi:docname="404-error.svg"
   inkscape:version="1.0.2 (e86c870879, 2021-01-15)">
  <metadata
     id="metadata102">
    <rdf:RDF>
      <cc:Work
         rdf:about="">
        <dc:format>image/svg+xml</dc:format>
        <dc:type
           rdf:resource="http://purl.org/dc/dcmitype/StillImage" />
      </cc:Work>
    </rdf:RDF>
  </metadata>
  <defs
     id="defs100" />
  <sodipodi:namedview
     pagecolor="#ffffff"
     bordercolor="#666666"
     borderopacity="1"
     objecttolerance="10"
     gridtolerance="10"
     guidetolerance="10"
     inkscape:pageopacity="0"
     inkscape:pageshadow="2"
     inkscape:window-width="1920"
     inkscape:window-height="1054"
     id="namedview98"
     showgrid="false"
     inkscape:zoom="1.7265625"
     inkscape:cx="202.32378"
     inkscape:cy="222.22841"
     inkscape:window-x="0"
     inkscape:window-y="26"
     inkscape:window-maximized="1"
     inkscape:current-layer="g95" />
  <g
     id="g95">
    <path
       d="m494.942 41.419c-10.84-13.335-26.002-22.71-42.694-26.399-4.044-.894-8.047 1.661-8.941 5.705s1.66 8.048 5.705 8.941c27.806 6.145 47.988 31.306 47.988 59.828v232.07c0 33.795-27.49 61.29-61.28 61.29h-359.44c-33.79 0-61.28-27.495-61.28-61.29v-232.07c0-33.79 27.49-61.28 61.28-61.28h344.44c4.143 0 7.5-3.358 7.5-7.5s-3.357-7.5-7.5-7.5h-344.44c-42.061 0-76.28 34.219-76.28 76.28v232.07c0 42.066 34.219 76.29 76.28 76.29h89.138v30.775h-14.131c-19.342 0-35.079 15.736-35.079 35.079s15.736 35.079 35.079 35.079h209.428c19.342 0 35.078-15.736 35.078-35.079s-15.736-35.079-35.078-35.079h-14.131v-30.775h89.137c42.062 0 76.28-34.224 76.28-76.29v-232.07c-.001-17.469-6.059-34.543-17.059-48.075zm-114.15 422.289c0 11.071-9.007 20.079-20.078 20.079h-209.428c-11.071 0-20.079-9.007-20.079-20.079s9.007-20.079 20.079-20.079h209.428c11.071 0 20.078 9.007 20.078 20.079zm-49.209-35.079h-151.166v-30.775h151.166z"
       id="path85"
       style="fill:#b3a88e;fill-opacity:1" />
    <path
       d="m153.64 359.614h282.07c20.98 0 38.05-17.069 38.05-38.05v-232.07c0-20.975-17.069-38.04-38.05-38.04h-359.42c-20.981 0-38.05 17.065-38.05 38.04v232.07c0 20.981 17.069 38.05 38.05 38.05h47.49c4.142 0 7.5-3.358 7.5-7.5s-3.358-7.5-7.5-7.5h-47.49c-12.709 0-23.05-10.34-23.05-23.05v-232.07c0-12.704 10.34-23.04 23.05-23.04h359.42c12.71 0 23.05 10.336 23.05 23.04v232.07c0 12.709-10.34 23.05-23.05 23.05h-282.07c-4.142 0-7.5 3.358-7.5 7.5s3.358 7.5 7.5 7.5z"
       id="path87"
       style="fill:#b3a88e;fill-opacity:1" />
    <path
       d="m178.481 150.142c-.638-7.652-5.006-13.821-11.127-15.717-2.86-.887-10.295-1.985-17.548 6.914-7.676 9.417-48.824 83.873-53.49 92.331-1.282 2.323-1.241 5.151.108 7.436s3.805 3.687 6.458 3.687h60.538c-.08 11.42-.167 22.583-.254 32.619-.036 4.142 3.293 7.528 7.435 7.564h.066c4.111 0 7.463-3.315 7.498-7.436.033-3.761.141-16.584.255-32.748h9.958c4.142 0 7.5-3.358 7.5-7.5s-3.358-7.5-7.5-7.5h-9.857c.216-34.216.374-74.684-.04-79.65zm-14.96 79.652h-47.913c17.819-32.081 41.213-73.319 45.825-78.978.626-.768 1.159-1.27 1.554-1.582.232.487.468 1.218.546 2.154.334 4.003.223 40.544-.012 78.406z"
       id="path89"
       style="fill:#b3a88e;fill-opacity:1" />
    <path
       d="m399.22 150.143c-.638-7.651-5.005-13.821-11.126-15.717-2.86-.884-10.297-1.985-17.55 6.914-7.675 9.417-48.823 83.873-53.49 92.331-1.281 2.323-1.24 5.151.109 7.436s3.805 3.687 6.458 3.687h60.538c-.079 11.42-.167 22.583-.254 32.619-.035 4.142 3.293 7.528 7.436 7.564h.065c4.112 0 7.463-3.315 7.499-7.436.032-3.762.141-16.584.255-32.748h9.957c4.143 0 7.5-3.358 7.5-7.5s-3.357-7.5-7.5-7.5h-9.857c.216-34.217.373-74.685-.04-79.65zm-14.961 79.651h-47.913c17.82-32.081 41.214-73.32 45.825-78.978.626-.768 1.159-1.27 1.555-1.582.231.487.468 1.218.546 2.154.332 4.004.223 40.544-.013 78.406z"
       id="path91"
       style="fill:#b3a88e;fill-opacity:1" />
    <path
       d="m305.426 240.885v-62.963c0-25.845-21.026-46.871-46.871-46.871s-46.871 21.026-46.871 46.871v62.963c0 25.845 21.026 46.871 46.871 46.871s46.871-21.027 46.871-46.871zm-78.742 0v-62.963c0-17.574 14.297-31.871 31.871-31.871s31.871 14.297 31.871 31.871v62.963c0 17.574-14.297 31.871-31.871 31.871-17.574-.001-31.871-14.298-31.871-31.871z"
       id="path93"
       style="fill:#b3a88e;fill-opacity:1" />
  </g>
</svg>
